<svg aria-hidden="true" viewBox="0 0 16 16" data-view-component="true">
    <path d="M2 2.5A2.5 2.5 0 0 1 4.5 0h8.75a.75.75 0 0 1 .75.75v12.5a.75.75 0 0 1-.75.75h-2.5a.75.75 0 0 1 0-1.5h1.75v-2h-8a1 1 0 0 0-.714 1.7.75.75 0 1 1-1.072 1.05A2.495 2.495 0 0 1 2 11.5Zm10.5-1h-8a1 1 0 0 0-1 1v6.708A2.486 2.486 0 0 1 4.5 9h8ZM5 12.25a.25.25 0 0 1 .25-.25h3.5a.25.25 0 0 1 .25.25v3.25a.25.25 0 0 1-.4.2l-1.45-1.087a.249.249 0 0 0-.3 0L5.4 15.7a.25.25 0 0 1-.4-.2Z"></path>
</svg>

<svg aria-hidden="true" viewBox="0 0 24 24" xmlns="http://www.w3.org/2000/svg" data-view-component="true">
    <path d="M13.987 11.6252C14.024 11.6253 14.0601 11.6144 14.0909 11.594C14.1217 11.5735 14.1457 11.5445 14.16 11.5104C14.1744 11.4764 14.1783 11.4389 14.1714 11.4026C14.1644 11.3663 14.147 11.3329 14.1211 11.3065L10.4461 7.56961C10.42 7.54309 10.3866 7.52494 10.3501 7.51748C10.3136 7.51002 10.2758 7.51358 10.2413 7.5277C10.2069 7.54183 10.1775 7.56588 10.1567 7.5968C10.136 7.62772 10.125 7.66411 10.125 7.70133V11.0627C10.125 11.2119 10.1843 11.355 10.2898 11.4605C10.3952 11.566 10.5383 11.6252 10.6875 11.6252H13.987Z" />
    <path d="M9.23438 12.5156C9.04184 12.3257 8.88886 12.0995 8.78427 11.85C8.67967 11.6006 8.62554 11.333 8.625 11.0625V6.75H5.25C4.45507 6.75235 3.69338 7.06917 3.13128 7.63128C2.56917 8.19338 2.25235 8.95507 2.25 9.75V20.25C2.25 21.0456 2.56607 21.8087 3.12868 22.3713C3.69129 22.9339 4.45435 23.25 5.25 23.25H12C12.7956 23.25 13.5587 22.9339 14.1213 22.3713C14.6839 21.8087 15 21.0456 15 20.25V13.125H10.6875C10.417 13.1246 10.1493 13.0706 9.89986 12.966C9.65043 12.8613 9.42423 12.7083 9.23438 12.5156Z" />
    <path d="M17.4375 5.62524H20.737C20.774 5.62527 20.8101 5.61439 20.8409 5.59396C20.8717 5.57354 20.8957 5.54448 20.91 5.51043C20.9244 5.47638 20.9283 5.43886 20.9214 5.40258C20.9144 5.36629 20.897 5.33287 20.8711 5.30649L17.1961 1.56961C17.17 1.54309 17.1366 1.52494 17.1001 1.51748C17.0636 1.51002 17.0258 1.51357 16.9913 1.5277C16.9569 1.54183 16.9275 1.56588 16.9067 1.5968C16.886 1.62772 16.875 1.66411 16.875 1.70133V5.06274C16.875 5.21192 16.9343 5.355 17.0398 5.46048C17.1452 5.56597 17.2883 5.62524 17.4375 5.62524Z" />
    <path d="M17.4375 7.125C16.8918 7.12083 16.3696 6.90219 15.9837 6.5163C15.5978 6.13041 15.3792 5.60822 15.375 5.0625V0.75H10.3125C9.56685 0.750868 8.85198 1.04746 8.32472 1.57472C7.79746 2.10198 7.50087 2.81685 7.5 3.5625V5.25H9.47437C9.72638 5.25101 9.97571 5.3018 10.208 5.39946C10.4403 5.49712 10.6511 5.63971 10.8281 5.81906L15.945 11.0222C16.302 11.3844 16.5013 11.873 16.4995 12.3816V18.75H18.9862C20.5102 18.75 21.7495 17.4881 21.7495 15.9375V7.125H17.4375Z" />
</svg>
