<svg viewBox="0 0 12 7" xmlns="http://www.w3.org/2000/svg">
  <path d="M7.06066 4.56066C6.77936 4.84196 6.39782 5 6 5C5.60218 5 5.22064 4.84196 4.93934 4.56066C4.65804 4.27936 4.5 3.89782 4.5 3.5C4.5 3.10218 4.65804 2.72064 4.93934 2.43934C5.22064 2.15804 5.60218 2 6 2C6.39782 2 6.77936 2.15804 7.06066 2.43934C7.34196 2.72064 7.5 3.10218 7.5 3.5C7.5 3.89782 7.34196 4.27936 7.06066 4.56066Z" />
  <path fill-rule="evenodd" clip-rule="evenodd" d="M6 0C3.78545 0 1.82142 1.10187 0.113508 3.18279C-0.0378361 3.36718 -0.0378361 3.63282 0.113508 3.81721C1.82142 5.89813 3.78545 7 6 7C8.21455 7 10.1786 5.89813 11.8865 3.81721C12.0378 3.63282 12.0378 3.36718 11.8865 3.18279C10.1786 1.10187 8.21455 0 6 0ZM6 6C4.26882 6 2.6555 5.20102 1.15618 3.5C2.6555 1.79898 4.26882 1 6 1C7.73118 1 9.3445 1.79898 10.8438 3.5C9.3445 5.20102 7.73118 6 6 6Z" />
</svg>
